<svg width="500" height="430" viewBox="0 0 500 430" fill="none" xmlns="http://www.w3.org/2000/svg">
<path fill-rule="evenodd" clip-rule="evenodd" d="M344.861 215.432C344.861 254.572 332.013 287.381 306.134 314.04C284.751 336.065 259.606 349.142 230.698 352.859V390.026H247.217V426.597C291.038 419.944 329.214 400.121 361.885 367.221C402.998 325.924 423.509 275.45 423.509 215.799C423.509 198.638 421.719 182.211 418.37 166.472C417.636 162.802 416.672 159.177 415.754 155.598C423.463 153.074 428.969 145.824 428.969 137.289C428.969 132.609 427.271 128.388 424.564 125.084L476.644 48.2256C478.067 48.5009 474.763 48.6845 480.774 48.6845C486.785 48.6845 500 40.058 500 29.4585C500 18.8589 491.373 10.2325 480.774 10.2325C470.174 10.2325 461.64 22.0709 461.64 29.4585C461.64 36.8919 462.97 37.5343 465.219 40.7004L412.68 118.293L409.789 118.017C407.082 118.017 404.512 118.568 402.172 119.623C399.373 120.862 396.804 122.835 394.968 125.176L305.767 97.6901C304.62 88.1001 296.498 80.8043 286.724 80.8043C279.796 80.8043 273.693 84.4751 270.297 89.9814C268.508 92.8722 267.498 96.2677 267.498 100.03C267.498 104.344 269.013 108.29 271.445 111.548L214.684 196.252C213.537 196.069 212.436 195.977 211.289 195.977C200.689 195.977 192.063 204.511 192.063 215.111C192.063 225.711 200.689 234.337 211.289 234.337C221.888 234.337 230.423 225.711 230.423 215.111C230.423 210.706 228.909 206.668 226.385 203.364L282.824 118.797C284.063 119.073 285.256 119.165 286.587 119.165C292.506 119.165 297.829 116.457 301.316 112.236C302.83 113.75 304.299 115.218 305.813 116.733C308.795 119.945 311.732 123.111 314.439 126.506C334.721 151.422 344.861 181.156 344.861 215.432Z" fill="url(#paint0_linear_488_631)"/>
<path fill-rule="evenodd" clip-rule="evenodd" d="M210.877 76.2616C228.406 76.2616 244.832 79.2442 259.929 85.2552C265.068 75.8945 275.025 69.4706 286.588 69.4706C299.253 69.4706 310.311 77.3629 314.808 88.6966L391.941 112.419C393.547 111.41 395.153 110.446 396.805 109.62C387.307 92.918 375.423 77.2711 360.969 62.7254C319.442 21.0155 269.702 0 212.024 0C173.848 0 138.195 9.59006 105.065 28.7243C72.0279 47.9503 46.0568 73.9673 27.1979 106.684C14.5335 128.709 6.09051 152.202 1.86905 177.026L0.137147 215.483L1.86884 252.095L1.86905 252.186C8.88952 294.768 28.1614 332.578 59.7765 365.524C91.6669 399.02 130.119 419.301 175.087 426.322V426.046C187.109 428.111 199.498 429.258 212.07 429.258C219.366 429.258 226.708 428.891 233.728 428.249V403.563H217.209V352.767C215.145 352.859 212.988 352.951 210.923 352.951C173.205 352.951 141.498 339.736 115.894 313.443C90.8409 287.748 77.993 255.353 77.4424 215.983C77.4424 175.466 90.1985 142.061 115.894 115.769C141.453 89.5225 173.159 76.2616 210.877 76.2616Z" fill="#253276"/>
<defs>
<linearGradient id="paint0_linear_488_631" x1="374.574" y1="457.825" x2="193.59" y2="406.202" gradientUnits="userSpaceOnUse">
<stop stop-color="#FF4F99"/>
<stop offset="1" stop-color="#7F37FE"/>
</linearGradient>
</defs>
</svg>
